# xmcd CD database file
#
# Track frame offsets:
#	183
#	16365
#	29420
#	45785
#	62013
#	77295
#	92313
#	106688
#	125863
#	136683
#	148608
#
# Disc length: 2233 seconds
#
# Revision: 1
# Processed by: cddbd v1.5.2PL0 Copyright (c) Steve Scherf et al.
# Submitted via: CDex 1.50beta10
#
DISCID=7b08b70b
DTITLE=Don Williams - As long As I Have You
DYEAR=1989
DGENRE=Country
TTITLE0=Learn To Let It Go
TTITLE1=One Good Well
TTITLE2=Cryin' Eyes
TTITLE3=I've Been Loved By The Best
TTITLE4=Broken Heartland
TTITLE5=Just As Long As I Have You
TTITLE6=Why Get Up
TTITLE7=Maybe That's All It Takes
TTITLE8=We're Al The Way
TTITLE9=Flowers Won't Grow (In Gardens Of Stone)
TTITLE10=If You Love Me, Won't You Love Me Like You Love Me
EXTD=YEAR: 1989
EXTT0=
EXTT1=
EXTT2=
EXTT3=
EXTT4=
EXTT5=
EXTT6=
EXTT7=
EXTT8=
EXTT9=
EXTT10=
PLAYORDER=
